<svg xmlns="http://www.w3.org/2000/svg" xmlns:xlink="http://www.w3.org/1999/xlink" viewBox="0,0,256,256" width="30px" height="30px"><g transform="translate(64,64) scale(0.5,0.5)"><g fill="none" fill-rule="nonzero" stroke="#ffffff" stroke-width="10.66667" stroke-linecap="butt" stroke-linejoin="miter" stroke-miterlimit="10" stroke-dasharray="" stroke-dashoffset="0" font-family="none" font-weight="none" font-size="none" text-anchor="none" style="mix-blend-mode: normal"><path d="M128,376.99696c-137.51722,0 -248.99696,-111.47974 -248.99696,-248.99696v0c0,-137.51722 111.47974,-248.99696 248.99696,-248.99696v0c137.51722,0 248.99696,111.47974 248.99696,248.99696v0c0,137.51722 -111.47974,248.99696 -248.99696,248.99696z" id="shape"></path></g><g fill="#ffffff" fill-rule="nonzero" stroke="none" stroke-width="1" stroke-linecap="butt" stroke-linejoin="miter" stroke-miterlimit="10" stroke-dasharray="" stroke-dashoffset="0" font-family="none" font-weight="none" font-size="none" text-anchor="none" style="mix-blend-mode: normal"><g transform="scale(5.33333,5.33333)"><path d="M24,4c-11.02793,0 -20,8.97207 -20,20c0,11.02793 8.97207,20 20,20c11.02793,0 20,-8.97207 20,-20c0,-11.02793 -8.97207,-20 -20,-20zM24,7c4.14231,0 7.92952,1.47634 10.875,3.92773c-2.75263,2.42336 -5.90023,4.39541 -9.29492,5.9082c-1.76855,-3.21635 -3.68842,-6.33517 -5.84375,-9.27734c1.36423,-0.3515 2.78785,-0.55859 4.26367,-0.55859zM16.78516,8.61719c2.21238,2.92554 4.16447,6.04707 5.96094,9.26953c-3.69563,1.28391 -7.60838,2.11328 -11.74609,2.11328c-1.16764,0 -2.31866,-0.07784 -3.46094,-0.18945c1.25785,-4.97528 4.69188,-9.05906 9.24609,-11.19336zM37.00195,13.04688c2.45922,2.91805 3.95155,6.67491 3.99023,10.79102c-2.15953,-0.5417 -4.41625,-0.83789 -6.74219,-0.83789c-1.8281,0 -3.59424,0.23597 -5.32422,0.57422c-0.60255,-1.39586 -1.2625,-2.75241 -1.94141,-4.10547c3.65931,-1.65484 7.05608,-3.79252 10.01758,-6.42187zM24.17773,20.57031c0.63352,1.25132 1.27238,2.49353 1.83789,3.7832c-6.0624,1.89613 -11.26637,5.74523 -14.75781,10.88477c-2.64245,-2.99509 -4.25781,-6.91896 -4.25781,-11.23828c0,-0.41439 0.03352,-0.81971 0.0625,-1.22656c1.29529,0.1328 2.60335,0.22656 3.9375,0.22656c4.64338,0 9.0451,-0.93675 13.17773,-2.42969zM34.25,26c2.24879,0 4.41834,0.31937 6.48828,0.88281c-0.78479,4.60653 -3.40219,8.57476 -7.09375,11.11914c-0.8892,-3.93705 -2.13392,-7.73284 -3.55859,-11.43945c1.37421,-0.23657 2.72109,-0.5625 4.16406,-0.5625zM27.0918,27.125c1.57089,4.00063 2.91442,8.11641 3.81445,12.40625c-2.1105,0.9373 -4.44343,1.46875 -6.90625,1.46875c-3.98932,0 -7.64289,-1.37739 -10.53906,-3.66797c3.14794,-4.85467 7.96982,-8.49089 13.63086,-10.20703z"></path></g></g></g></svg>